<?xml version="1.0" encoding="UTF-8"?>
<svg id="Capa_2" data-name="Capa 2" xmlns="http://www.w3.org/2000/svg" viewBox="0 0 6.3 14.52">
  <defs>
    <style>
      .cls-1 {
        fill: #00bdff;
      }

      .cls-2 {
        fill: #002cff;
      }

      .cls-3 {
        fill: #275ed8;
      }

      .cls-4 {
        fill: #0075ff;
      }

      .cls-5 {
        fill: #26d9d5;
      }

      .cls-6 {
        fill: #3c27d8;
      }

      .cls-7 {
        fill: #269fd9;
      }

      .cls-8 {
        fill: #00fffb;
      }
    </style>
  </defs>
  <g id="Capa_3" data-name="Capa 3">
    <polygon class="cls-5" points="0 1.87 3.15 3.64 3.13 0 0 1.87"/>
    <polygon class="cls-8" points="0 5.46 3.15 3.64 0 1.87 0 5.46"/>
    <polygon class="cls-7" points="0 5.46 3.15 7.25 3.15 3.64 0 5.46"/>
    <polygon class="cls-4" points="3.15 7.25 0 9.1 0 5.46 3.15 7.25"/>
    <polygon class="cls-2" points="0 9.1 3.15 7.25 3.15 10.86 0 9.1"/>
    <polygon class="cls-7" points="0 12.68 3.15 10.86 0 9.1 0 12.68"/>
    <polygon class="cls-6" points="3.1 14.52 3.15 10.86 0 12.68 3.1 14.52"/>
    <polygon class="cls-4" points="6.27 12.69 3.15 10.86 3.1 14.52 6.27 12.69"/>
    <polygon class="cls-1" points="6.27 9.06 6.27 12.69 3.15 10.86 6.27 9.06"/>
    <polygon class="cls-2" points="6.3 1.82 3.13 0 3.15 3.64 6.3 1.82"/>
    <polygon class="cls-3" points="6.27 5.44 6.3 1.82 3.15 3.64 6.27 5.44"/>
  </g>
</svg>